<svg xmlns="http://www.w3.org/2000/svg" xmlns:xlink="http://www.w3.org/1999/xlink" width="472.5" height="94.5" viewBox="0 0 472.5 94.5">
  <defs>
    <filter id="DODAJEMY" x="111.5" y="4.5" width="361" height="90" filterUnits="userSpaceOnUse">
      <feOffset dy="3" input="SourceAlpha"/>
      <feGaussianBlur stdDeviation="3" result="blur"/>
      <feFlood flood-opacity="0.161"/>
      <feComposite operator="in" in2="blur"/>
      <feComposite in="SourceGraphic"/>
    </filter>
  </defs>
  <g id="Group_2" data-name="Group 2" transform="translate(-83.5 -13.5)">
    <g id="coding" transform="translate(84 -3.655)">
      <path id="Path_1" data-name="Path 1" d="M190.139,465.713h-40.07a6.679,6.679,0,0,1,6.678-6.678h26.713a6.678,6.678,0,0,1,6.678,6.678" transform="translate(-121.686 -357.901)" fill="#e8edee" stroke="#707070" stroke-width="1"/>
      <path id="Path_2" data-name="Path 2" d="M217.581,401.771H194.207l3.339-13.357h16.7Z" transform="translate(-157.476 -300.636)" fill="#b0b6bb" stroke="#707070" stroke-width="1"/>
      <path id="Path_3" data-name="Path 3" d="M96.836,74.421H0V23.5a5.844,5.844,0,0,1,5.844-5.844H90.992A5.844,5.844,0,0,1,96.836,23.5V74.421Z" fill="#38454f" stroke="#707070" stroke-width="1"/>
      <path id="Path_4" data-name="Path 4" d="M90.992,331.15H5.844A5.844,5.844,0,0,1,0,325.306v-7.513H96.836v7.513a5.844,5.844,0,0,1-5.844,5.844" transform="translate(0 -243.372)" fill="#e8edee" stroke="#707070" stroke-width="1"/>
      <g id="Group_1" data-name="Group 1" transform="translate(13.357 24.332)">
        <path id="Path_5" data-name="Path 5" d="M318.023,268.166H292.98a1.67,1.67,0,0,1,0-3.339h25.044a1.67,1.67,0,1,1,0,3.339" transform="translate(-249.57 -224.756)" fill="#ea6148" stroke="#707070" stroke-width="1"/>
        <path id="Path_6" data-name="Path 6" d="M88.986,215.2H72.29a1.67,1.67,0,0,1,0-3.339h16.7a1.67,1.67,0,1,1,0,3.339" transform="translate(-70.62 -181.807)" fill="#ea6148" stroke="#707070" stroke-width="1"/>
        <path id="Path_7" data-name="Path 7" d="M273.885,215.2H248.842a1.67,1.67,0,0,1,0-3.339h25.044a1.67,1.67,0,1,1,0,3.339" transform="translate(-213.78 -181.807)" fill="#ea6148" stroke="#707070" stroke-width="1"/>
        <path id="Path_8" data-name="Path 8" d="M204.7,215.24a1.662,1.662,0,0,1-.634-.134,1.667,1.667,0,1,1,1.82-2.722,1.67,1.67,0,0,1-1.185,2.855" transform="translate(-177.991 -181.847)" fill="#ea6148" stroke="#707070" stroke-width="1"/>
        <path id="Path_9" data-name="Path 9" d="M141.471,268.166H116.428a1.67,1.67,0,1,1,0-3.339h25.044a1.67,1.67,0,1,1,0,3.339" transform="translate(-106.41 -224.756)" fill="#ea6148" stroke="#707070" stroke-width="1"/>
        <path id="Path_10" data-name="Path 10" d="M72.29,268.188a1.662,1.662,0,0,1-.634-.134,1.926,1.926,0,0,1-.551-.351,1.716,1.716,0,0,1-.484-1.185,1.662,1.662,0,0,1,.134-.634,1.61,1.61,0,0,1,1.852-1,1.013,1.013,0,0,1,.319.1.95.95,0,0,1,.284.15c.1.067.184.134.267.2a1.729,1.729,0,0,1,.351.551,1.663,1.663,0,0,1,.134.634,1.725,1.725,0,0,1-.484,1.185c-.083.067-.169.134-.267.2a.944.944,0,0,1-.284.15,1.018,1.018,0,0,1-.319.1,2.012,2.012,0,0,1-.316.033" transform="translate(-70.621 -224.778)" fill="#ea6148" stroke="#707070" stroke-width="1"/>
        <path id="Path_11" data-name="Path 11" d="M425.394,215.194a2.007,2.007,0,0,1-.317-.033,1,1,0,0,1-.317-.1,1.31,1.31,0,0,1-.3-.15l-.249-.2a1.693,1.693,0,0,1,0-2.371l.249-.2a1.3,1.3,0,0,1,.3-.15,1.01,1.01,0,0,1,.317-.1,1.668,1.668,0,0,1,1.5.451c.067.083.134.167.2.267a1.766,1.766,0,0,1,.249.6,1.867,1.867,0,0,1,.035.317,2.279,2.279,0,0,1-.035.334,1,1,0,0,1-.1.3,1.329,1.329,0,0,1-.15.3l-.2.25c-.083.067-.169.134-.25.2a1.293,1.293,0,0,1-.3.15,1.018,1.018,0,0,1-.319.1,1.972,1.972,0,0,1-.316.034" transform="translate(-356.941 -181.801)" fill="#ea6148" stroke="#707070" stroke-width="1"/>
        <path id="Path_12" data-name="Path 12" d="M318.023,109.269H292.98a1.67,1.67,0,0,1,0-3.339h25.044a1.67,1.67,0,1,1,0,3.339" transform="translate(-249.57 -95.911)" fill="#ea6148" stroke="#707070" stroke-width="1"/>
        <path id="Path_13" data-name="Path 13" d="M353.814,162.235h-16.7a1.67,1.67,0,1,1,0-3.339h16.7a1.67,1.67,0,1,1,0,3.339" transform="translate(-285.36 -138.86)" fill="#ea6148" stroke="#707070" stroke-width="1"/>
        <path id="Path_14" data-name="Path 14" d="M252.181,162.235h-3.339a1.67,1.67,0,0,1,0-3.339h3.339a1.67,1.67,0,1,1,0,3.339" transform="translate(-213.78 -138.86)" fill="#ea6148" stroke="#707070" stroke-width="1"/>
        <path id="Path_15" data-name="Path 15" d="M273.885,56.3H248.842a1.67,1.67,0,0,1,0-3.339h25.044a1.67,1.67,0,1,1,0,3.339" transform="translate(-213.78 -52.964)" fill="#ea6148" stroke="#707070" stroke-width="1"/>
        <path id="Path_16" data-name="Path 16" d="M425.394,56.3a2.007,2.007,0,0,1-.317-.033,1,1,0,0,1-.317-.1,1.311,1.311,0,0,1-.3-.15l-.249-.2a1.693,1.693,0,0,1,0-2.371l.249-.2a1.3,1.3,0,0,1,.3-.15,1.01,1.01,0,0,1,.317-.1,1.668,1.668,0,0,1,1.5.451c.067.083.134.167.2.267a1.766,1.766,0,0,1,.249.6,1.867,1.867,0,0,1,.035.317,2.279,2.279,0,0,1-.035.334,1,1,0,0,1-.1.3,1.329,1.329,0,0,1-.15.3l-.2.25c-.083.067-.169.134-.25.2a1.293,1.293,0,0,1-.3.15,1.019,1.019,0,0,1-.319.1,1.993,1.993,0,0,1-.316.034" transform="translate(-356.941 -52.958)" fill="#ea6148" stroke="#707070" stroke-width="1"/>
        <path id="Path_17" data-name="Path 17" d="M257.67,109.292a1.753,1.753,0,0,1-1.185-.484,1.934,1.934,0,0,1-.351-.551,1.573,1.573,0,0,1,0-1.269,1.924,1.924,0,0,1,.351-.551,1.711,1.711,0,0,1,1.5-.451,1.014,1.014,0,0,1,.319.1.951.951,0,0,1,.284.15,1.725,1.725,0,0,1,.25.2,1.673,1.673,0,0,1,0,2.371,1.725,1.725,0,0,1-.25.2.945.945,0,0,1-.284.15,1.019,1.019,0,0,1-.319.1,1.99,1.99,0,0,1-.315.033" transform="translate(-220.939 -95.934)" fill="#ea6148" stroke="#707070" stroke-width="1"/>
        <path id="Path_18" data-name="Path 18" d="M301.808,162.325a1.719,1.719,0,0,1-1.186-.484,1.676,1.676,0,1,1,2.855-1.185,2.064,2.064,0,0,1-.035.334,1,1,0,0,1-.1.3,1.328,1.328,0,0,1-.15.3l-.2.25a1.725,1.725,0,0,1-1.185.484" transform="translate(-256.729 -138.949)" fill="#ea6148" stroke="#707070" stroke-width="1"/>
      </g>
      <path id="Path_19" data-name="Path 19" d="M79.448,76.34h23.374V52.966H79.448Z" transform="translate(-64.422 -28.633)" fill="#ecba16" stroke="#707070" stroke-width="1"/>
    </g>
    <g transform="matrix(1, 0, 0, 1, 83.5, 13.5)" filter="url(#DODAJEMY)">
      <text id="DODAJEMY-2" data-name="DODAJEMY" transform="translate(120.5 69.5)" fill="#f8f8f8" font-size="60" font-family="Lato-Bold, Lato" font-weight="700" letter-spacing="0.015em"><tspan x="0" y="0">DODAJEMY</tspan></text>
    </g>
  </g>
</svg>
